<mxfile host="app.diagrams.net" agent="Mozilla/5.0 (Windows NT 10.0; Win64; x64) AppleWebKit/537.36 (KHTML, like Gecko) Chrome/136.0.0.0 Safari/537.36" version="27.0.3">
  <diagram name="Page-1" id="BaEyw5GLwUENZ1h6jG7C">
    <mxGraphModel dx="926" dy="1607" grid="1" gridSize="10" guides="1" tooltips="1" connect="1" arrows="1" fold="1" page="1" pageScale="1" pageWidth="827" pageHeight="1169" math="0" shadow="0">
      <root>
        <mxCell id="0" />
        <mxCell id="1" parent="0" />
        <mxCell id="GZaLK179q7ftWSOgqzJj-5" value="" style="edgeStyle=orthogonalEdgeStyle;rounded=0;orthogonalLoop=1;jettySize=auto;html=1;" edge="1" parent="1" source="GZaLK179q7ftWSOgqzJj-3" target="GZaLK179q7ftWSOgqzJj-4">
          <mxGeometry relative="1" as="geometry" />
        </mxCell>
        <mxCell id="GZaLK179q7ftWSOgqzJj-3" value="&lt;b&gt;Начало цикла сопровождения&lt;/b&gt;" style="rounded=0;whiteSpace=wrap;html=1;" vertex="1" parent="1">
          <mxGeometry x="90" y="60" width="120" height="60" as="geometry" />
        </mxCell>
        <mxCell id="GZaLK179q7ftWSOgqzJj-16" style="edgeStyle=orthogonalEdgeStyle;rounded=0;orthogonalLoop=1;jettySize=auto;html=1;exitX=1;exitY=0.5;exitDx=0;exitDy=0;entryX=0;entryY=0.5;entryDx=0;entryDy=0;" edge="1" parent="1" source="GZaLK179q7ftWSOgqzJj-4" target="GZaLK179q7ftWSOgqzJj-6">
          <mxGeometry relative="1" as="geometry" />
        </mxCell>
        <mxCell id="GZaLK179q7ftWSOgqzJj-4" value="&lt;div&gt;&lt;b&gt;&lt;u&gt;Планирование регулярных аудитов&lt;/u&gt;&lt;/b&gt;:&lt;/div&gt;&lt;div&gt;&lt;span style=&quot;background-color: transparent; color: light-dark(rgb(0, 0, 0), rgb(255, 255, 255));&quot;&gt;Производительности&lt;/span&gt;&lt;/div&gt;&lt;div&gt;&lt;span style=&quot;background-color: transparent; color: light-dark(rgb(0, 0, 0), rgb(255, 255, 255));&quot;&gt;Безопасности&lt;/span&gt;&lt;/div&gt;" style="whiteSpace=wrap;html=1;rounded=0;" vertex="1" parent="1">
          <mxGeometry x="80" y="140" width="140" height="80" as="geometry" />
        </mxCell>
        <mxCell id="GZaLK179q7ftWSOgqzJj-10" style="edgeStyle=orthogonalEdgeStyle;rounded=0;orthogonalLoop=1;jettySize=auto;html=1;exitX=0.25;exitY=1;exitDx=0;exitDy=0;entryX=0.5;entryY=0;entryDx=0;entryDy=0;" edge="1" parent="1" source="GZaLK179q7ftWSOgqzJj-6" target="GZaLK179q7ftWSOgqzJj-7">
          <mxGeometry relative="1" as="geometry">
            <Array as="points">
              <mxPoint x="270" y="230" />
              <mxPoint x="160" y="230" />
            </Array>
          </mxGeometry>
        </mxCell>
        <mxCell id="GZaLK179q7ftWSOgqzJj-15" style="edgeStyle=orthogonalEdgeStyle;rounded=0;orthogonalLoop=1;jettySize=auto;html=1;exitX=1;exitY=0.5;exitDx=0;exitDy=0;entryX=0;entryY=0.5;entryDx=0;entryDy=0;" edge="1" parent="1" source="GZaLK179q7ftWSOgqzJj-6" target="GZaLK179q7ftWSOgqzJj-14">
          <mxGeometry relative="1" as="geometry" />
        </mxCell>
        <mxCell id="GZaLK179q7ftWSOgqzJj-6" value="&lt;b&gt;Сбор обратной связи&lt;/b&gt;" style="whiteSpace=wrap;html=1;" vertex="1" parent="1">
          <mxGeometry x="240" y="150" width="120" height="60" as="geometry" />
        </mxCell>
        <mxCell id="GZaLK179q7ftWSOgqzJj-11" style="edgeStyle=orthogonalEdgeStyle;rounded=0;orthogonalLoop=1;jettySize=auto;html=1;exitX=1;exitY=0.5;exitDx=0;exitDy=0;entryX=0;entryY=0.5;entryDx=0;entryDy=0;" edge="1" parent="1" source="GZaLK179q7ftWSOgqzJj-7" target="GZaLK179q7ftWSOgqzJj-8">
          <mxGeometry relative="1" as="geometry" />
        </mxCell>
        <mxCell id="GZaLK179q7ftWSOgqzJj-7" value="От пользователей (инциденты, пожелания по улучшениям)" style="whiteSpace=wrap;html=1;" vertex="1" parent="1">
          <mxGeometry x="100" y="240" width="120" height="60" as="geometry" />
        </mxCell>
        <mxCell id="GZaLK179q7ftWSOgqzJj-12" style="edgeStyle=orthogonalEdgeStyle;rounded=0;orthogonalLoop=1;jettySize=auto;html=1;exitX=1;exitY=0.5;exitDx=0;exitDy=0;entryX=0;entryY=0.5;entryDx=0;entryDy=0;" edge="1" parent="1" source="GZaLK179q7ftWSOgqzJj-8" target="GZaLK179q7ftWSOgqzJj-9">
          <mxGeometry relative="1" as="geometry" />
        </mxCell>
        <mxCell id="GZaLK179q7ftWSOgqzJj-8" value="От службы поддержки (частые сбои)" style="whiteSpace=wrap;html=1;" vertex="1" parent="1">
          <mxGeometry x="240" y="240" width="120" height="60" as="geometry" />
        </mxCell>
        <mxCell id="GZaLK179q7ftWSOgqzJj-9" value="Мониторинг технических KPI" style="whiteSpace=wrap;html=1;" vertex="1" parent="1">
          <mxGeometry x="380" y="240" width="120" height="60" as="geometry" />
        </mxCell>
        <mxCell id="GZaLK179q7ftWSOgqzJj-13" style="edgeStyle=orthogonalEdgeStyle;rounded=0;orthogonalLoop=1;jettySize=auto;html=1;exitX=0.5;exitY=0;exitDx=0;exitDy=0;entryX=0.631;entryY=0.996;entryDx=0;entryDy=0;entryPerimeter=0;" edge="1" parent="1" source="GZaLK179q7ftWSOgqzJj-9" target="GZaLK179q7ftWSOgqzJj-6">
          <mxGeometry relative="1" as="geometry">
            <Array as="points">
              <mxPoint x="440" y="230" />
              <mxPoint x="316" y="230" />
            </Array>
          </mxGeometry>
        </mxCell>
        <mxCell id="GZaLK179q7ftWSOgqzJj-22" style="edgeStyle=orthogonalEdgeStyle;rounded=0;orthogonalLoop=1;jettySize=auto;html=1;exitX=0.25;exitY=0;exitDx=0;exitDy=0;entryX=0.5;entryY=1;entryDx=0;entryDy=0;" edge="1" parent="1" source="GZaLK179q7ftWSOgqzJj-14" target="GZaLK179q7ftWSOgqzJj-17">
          <mxGeometry relative="1" as="geometry">
            <Array as="points">
              <mxPoint x="410" y="140" />
              <mxPoint x="370" y="140" />
            </Array>
          </mxGeometry>
        </mxCell>
        <mxCell id="GZaLK179q7ftWSOgqzJj-28" value="" style="edgeStyle=orthogonalEdgeStyle;rounded=0;orthogonalLoop=1;jettySize=auto;html=1;" edge="1" parent="1" source="GZaLK179q7ftWSOgqzJj-14" target="GZaLK179q7ftWSOgqzJj-27">
          <mxGeometry relative="1" as="geometry" />
        </mxCell>
        <mxCell id="GZaLK179q7ftWSOgqzJj-14" value="&lt;div&gt;&lt;b&gt;Анализ необходимых изменений&lt;/b&gt;&lt;/div&gt;" style="whiteSpace=wrap;html=1;" vertex="1" parent="1">
          <mxGeometry x="380" y="150" width="120" height="60" as="geometry" />
        </mxCell>
        <mxCell id="GZaLK179q7ftWSOgqzJj-17" value="Корректирующие (устранение дефектов)" style="whiteSpace=wrap;html=1;" vertex="1" parent="1">
          <mxGeometry x="310" y="60" width="120" height="60" as="geometry" />
        </mxCell>
        <mxCell id="GZaLK179q7ftWSOgqzJj-24" style="edgeStyle=orthogonalEdgeStyle;rounded=0;orthogonalLoop=1;jettySize=auto;html=1;exitX=1;exitY=0.5;exitDx=0;exitDy=0;entryX=0;entryY=0.5;entryDx=0;entryDy=0;" edge="1" parent="1" source="GZaLK179q7ftWSOgqzJj-18" target="GZaLK179q7ftWSOgqzJj-19">
          <mxGeometry relative="1" as="geometry" />
        </mxCell>
        <mxCell id="GZaLK179q7ftWSOgqzJj-18" value="&amp;nbsp;Профилактические (предотвращение проблем)" style="whiteSpace=wrap;html=1;" vertex="1" parent="1">
          <mxGeometry x="310" y="-20" width="120" height="60" as="geometry" />
        </mxCell>
        <mxCell id="GZaLK179q7ftWSOgqzJj-25" style="edgeStyle=orthogonalEdgeStyle;rounded=0;orthogonalLoop=1;jettySize=auto;html=1;exitX=0.5;exitY=1;exitDx=0;exitDy=0;entryX=0.5;entryY=0;entryDx=0;entryDy=0;" edge="1" parent="1" source="GZaLK179q7ftWSOgqzJj-19" target="GZaLK179q7ftWSOgqzJj-20">
          <mxGeometry relative="1" as="geometry" />
        </mxCell>
        <mxCell id="GZaLK179q7ftWSOgqzJj-19" value="Адаптационные (поддержка новых сред)" style="whiteSpace=wrap;html=1;" vertex="1" parent="1">
          <mxGeometry x="450" y="-20" width="120" height="60" as="geometry" />
        </mxCell>
        <mxCell id="GZaLK179q7ftWSOgqzJj-20" value="Эволюционные (новый функционал)" style="whiteSpace=wrap;html=1;" vertex="1" parent="1">
          <mxGeometry x="450" y="60" width="120" height="60" as="geometry" />
        </mxCell>
        <mxCell id="GZaLK179q7ftWSOgqzJj-23" style="edgeStyle=orthogonalEdgeStyle;rounded=0;orthogonalLoop=1;jettySize=auto;html=1;exitX=0.5;exitY=0;exitDx=0;exitDy=0;entryX=0.5;entryY=1;entryDx=0;entryDy=0;" edge="1" parent="1" source="GZaLK179q7ftWSOgqzJj-17" target="GZaLK179q7ftWSOgqzJj-18">
          <mxGeometry relative="1" as="geometry" />
        </mxCell>
        <mxCell id="GZaLK179q7ftWSOgqzJj-26" style="edgeStyle=orthogonalEdgeStyle;rounded=0;orthogonalLoop=1;jettySize=auto;html=1;exitX=0.5;exitY=1;exitDx=0;exitDy=0;entryX=0.667;entryY=-0.001;entryDx=0;entryDy=0;entryPerimeter=0;" edge="1" parent="1" source="GZaLK179q7ftWSOgqzJj-20" target="GZaLK179q7ftWSOgqzJj-14">
          <mxGeometry relative="1" as="geometry" />
        </mxCell>
        <mxCell id="GZaLK179q7ftWSOgqzJj-33" style="edgeStyle=orthogonalEdgeStyle;rounded=0;orthogonalLoop=1;jettySize=auto;html=1;exitX=1;exitY=0.75;exitDx=0;exitDy=0;entryX=0;entryY=0.5;entryDx=0;entryDy=0;" edge="1" parent="1" source="GZaLK179q7ftWSOgqzJj-27" target="GZaLK179q7ftWSOgqzJj-29">
          <mxGeometry relative="1" as="geometry">
            <Array as="points">
              <mxPoint x="650" y="195" />
              <mxPoint x="650" y="260" />
            </Array>
          </mxGeometry>
        </mxCell>
        <mxCell id="GZaLK179q7ftWSOgqzJj-38" style="edgeStyle=orthogonalEdgeStyle;rounded=0;orthogonalLoop=1;jettySize=auto;html=1;exitX=0.5;exitY=1;exitDx=0;exitDy=0;entryX=0.5;entryY=0;entryDx=0;entryDy=0;" edge="1" parent="1" source="GZaLK179q7ftWSOgqzJj-27" target="GZaLK179q7ftWSOgqzJj-37">
          <mxGeometry relative="1" as="geometry" />
        </mxCell>
        <mxCell id="GZaLK179q7ftWSOgqzJj-27" value="&lt;div&gt;&lt;b&gt;Оценка воздействия изменений&lt;/b&gt;&lt;/div&gt;" style="whiteSpace=wrap;html=1;" vertex="1" parent="1">
          <mxGeometry x="520" y="150" width="120" height="60" as="geometry" />
        </mxCell>
        <mxCell id="GZaLK179q7ftWSOgqzJj-34" style="edgeStyle=orthogonalEdgeStyle;rounded=0;orthogonalLoop=1;jettySize=auto;html=1;exitX=0.5;exitY=0;exitDx=0;exitDy=0;entryX=0.5;entryY=1;entryDx=0;entryDy=0;" edge="1" parent="1" source="GZaLK179q7ftWSOgqzJj-29" target="GZaLK179q7ftWSOgqzJj-30">
          <mxGeometry relative="1" as="geometry" />
        </mxCell>
        <mxCell id="GZaLK179q7ftWSOgqzJj-29" value="На производительность" style="whiteSpace=wrap;html=1;" vertex="1" parent="1">
          <mxGeometry x="660" y="230" width="120" height="60" as="geometry" />
        </mxCell>
        <mxCell id="GZaLK179q7ftWSOgqzJj-35" style="edgeStyle=orthogonalEdgeStyle;rounded=0;orthogonalLoop=1;jettySize=auto;html=1;exitX=0.5;exitY=0;exitDx=0;exitDy=0;entryX=0.5;entryY=1;entryDx=0;entryDy=0;" edge="1" parent="1" source="GZaLK179q7ftWSOgqzJj-30" target="GZaLK179q7ftWSOgqzJj-31">
          <mxGeometry relative="1" as="geometry" />
        </mxCell>
        <mxCell id="GZaLK179q7ftWSOgqzJj-30" value="На соответствие стандартам" style="whiteSpace=wrap;html=1;" vertex="1" parent="1">
          <mxGeometry x="660" y="150" width="120" height="60" as="geometry" />
        </mxCell>
        <mxCell id="GZaLK179q7ftWSOgqzJj-36" style="edgeStyle=orthogonalEdgeStyle;rounded=0;orthogonalLoop=1;jettySize=auto;html=1;exitX=0;exitY=0.5;exitDx=0;exitDy=0;entryX=1;entryY=0.25;entryDx=0;entryDy=0;" edge="1" parent="1" source="GZaLK179q7ftWSOgqzJj-31" target="GZaLK179q7ftWSOgqzJj-27">
          <mxGeometry relative="1" as="geometry">
            <Array as="points">
              <mxPoint x="650" y="100" />
              <mxPoint x="650" y="165" />
            </Array>
          </mxGeometry>
        </mxCell>
        <mxCell id="GZaLK179q7ftWSOgqzJj-31" value="На безопасность" style="whiteSpace=wrap;html=1;" vertex="1" parent="1">
          <mxGeometry x="660" y="70" width="120" height="60" as="geometry" />
        </mxCell>
        <mxCell id="GZaLK179q7ftWSOgqzJj-46" style="edgeStyle=orthogonalEdgeStyle;rounded=0;orthogonalLoop=1;jettySize=auto;html=1;exitX=0.5;exitY=1;exitDx=0;exitDy=0;entryX=0.5;entryY=0;entryDx=0;entryDy=0;" edge="1" parent="1" source="GZaLK179q7ftWSOgqzJj-37" target="GZaLK179q7ftWSOgqzJj-39">
          <mxGeometry relative="1" as="geometry">
            <Array as="points">
              <mxPoint x="580" y="330" />
              <mxPoint x="620" y="330" />
            </Array>
          </mxGeometry>
        </mxCell>
        <mxCell id="GZaLK179q7ftWSOgqzJj-49" style="edgeStyle=orthogonalEdgeStyle;rounded=0;orthogonalLoop=1;jettySize=auto;html=1;exitX=0.25;exitY=1;exitDx=0;exitDy=0;entryX=0.5;entryY=0;entryDx=0;entryDy=0;" edge="1" parent="1" source="GZaLK179q7ftWSOgqzJj-37" target="GZaLK179q7ftWSOgqzJj-48">
          <mxGeometry relative="1" as="geometry" />
        </mxCell>
        <mxCell id="GZaLK179q7ftWSOgqzJj-37" value="&lt;b&gt;Актуализация документации:&lt;/b&gt;" style="rounded=0;whiteSpace=wrap;html=1;" vertex="1" parent="1">
          <mxGeometry x="520" y="240" width="120" height="60" as="geometry" />
        </mxCell>
        <mxCell id="GZaLK179q7ftWSOgqzJj-43" style="edgeStyle=orthogonalEdgeStyle;rounded=0;orthogonalLoop=1;jettySize=auto;html=1;exitX=0.5;exitY=1;exitDx=0;exitDy=0;entryX=0;entryY=0.5;entryDx=0;entryDy=0;" edge="1" parent="1" source="GZaLK179q7ftWSOgqzJj-39" target="GZaLK179q7ftWSOgqzJj-40">
          <mxGeometry relative="1" as="geometry">
            <Array as="points">
              <mxPoint x="620" y="450" />
            </Array>
          </mxGeometry>
        </mxCell>
        <mxCell id="GZaLK179q7ftWSOgqzJj-39" value="&lt;div&gt;Руководство пользователя&lt;/div&gt;" style="whiteSpace=wrap;html=1;" vertex="1" parent="1">
          <mxGeometry x="560" y="340" width="120" height="60" as="geometry" />
        </mxCell>
        <mxCell id="GZaLK179q7ftWSOgqzJj-45" style="edgeStyle=orthogonalEdgeStyle;rounded=0;orthogonalLoop=1;jettySize=auto;html=1;exitX=1;exitY=0.5;exitDx=0;exitDy=0;entryX=0.525;entryY=1;entryDx=0;entryDy=0;entryPerimeter=0;" edge="1" parent="1" source="GZaLK179q7ftWSOgqzJj-40" target="GZaLK179q7ftWSOgqzJj-41">
          <mxGeometry relative="1" as="geometry">
            <mxPoint x="770" y="410" as="targetPoint" />
          </mxGeometry>
        </mxCell>
        <mxCell id="GZaLK179q7ftWSOgqzJj-40" value="Регламенты технического обслуживания" style="whiteSpace=wrap;html=1;" vertex="1" parent="1">
          <mxGeometry x="630" y="420" width="120" height="60" as="geometry" />
        </mxCell>
        <mxCell id="GZaLK179q7ftWSOgqzJj-47" style="edgeStyle=orthogonalEdgeStyle;rounded=0;orthogonalLoop=1;jettySize=auto;html=1;exitX=0.5;exitY=0;exitDx=0;exitDy=0;entryX=0.75;entryY=1;entryDx=0;entryDy=0;" edge="1" parent="1" source="GZaLK179q7ftWSOgqzJj-41" target="GZaLK179q7ftWSOgqzJj-37">
          <mxGeometry relative="1" as="geometry" />
        </mxCell>
        <mxCell id="GZaLK179q7ftWSOgqzJj-41" value="&amp;nbsp;Журнал изменений" style="whiteSpace=wrap;html=1;" vertex="1" parent="1">
          <mxGeometry x="707" y="340" width="120" height="60" as="geometry" />
        </mxCell>
        <mxCell id="GZaLK179q7ftWSOgqzJj-52" style="edgeStyle=orthogonalEdgeStyle;rounded=0;orthogonalLoop=1;jettySize=auto;html=1;exitX=0;exitY=0.5;exitDx=0;exitDy=0;entryX=1;entryY=0.5;entryDx=0;entryDy=0;" edge="1" parent="1" source="GZaLK179q7ftWSOgqzJj-48" target="GZaLK179q7ftWSOgqzJj-51">
          <mxGeometry relative="1" as="geometry" />
        </mxCell>
        <mxCell id="GZaLK179q7ftWSOgqzJj-48" value="&lt;div&gt;&lt;b&gt;Внедрение утвержденных изменений&lt;/b&gt;&lt;/div&gt;" style="whiteSpace=wrap;html=1;" vertex="1" parent="1">
          <mxGeometry x="420" y="340" width="120" height="60" as="geometry" />
        </mxCell>
        <mxCell id="GZaLK179q7ftWSOgqzJj-54" style="edgeStyle=orthogonalEdgeStyle;rounded=0;orthogonalLoop=1;jettySize=auto;html=1;exitX=0;exitY=0.5;exitDx=0;exitDy=0;entryX=1;entryY=0.5;entryDx=0;entryDy=0;" edge="1" parent="1" source="GZaLK179q7ftWSOgqzJj-51" target="GZaLK179q7ftWSOgqzJj-53">
          <mxGeometry relative="1" as="geometry" />
        </mxCell>
        <mxCell id="GZaLK179q7ftWSOgqzJj-51" value="&lt;div&gt;&lt;b&gt;Проведение пост-релизного тестирования (согласно ГОСТ 34.603-92)&lt;/b&gt;&lt;/div&gt;" style="whiteSpace=wrap;html=1;" vertex="1" parent="1">
          <mxGeometry x="240" y="340" width="160" height="60" as="geometry" />
        </mxCell>
        <mxCell id="GZaLK179q7ftWSOgqzJj-56" style="edgeStyle=orthogonalEdgeStyle;rounded=0;orthogonalLoop=1;jettySize=auto;html=1;exitX=0.5;exitY=1;exitDx=0;exitDy=0;entryX=0.5;entryY=0;entryDx=0;entryDy=0;" edge="1" parent="1" source="GZaLK179q7ftWSOgqzJj-53" target="GZaLK179q7ftWSOgqzJj-55">
          <mxGeometry relative="1" as="geometry" />
        </mxCell>
        <mxCell id="GZaLK179q7ftWSOgqzJj-53" value="&lt;div&gt;&lt;b&gt;Обновление версии системы и архивация результатов&lt;/b&gt;&lt;/div&gt;" style="whiteSpace=wrap;html=1;" vertex="1" parent="1">
          <mxGeometry x="95" y="340" width="125" height="60" as="geometry" />
        </mxCell>
        <mxCell id="GZaLK179q7ftWSOgqzJj-55" value="&lt;b&gt;Завершение цикла сопровождения&lt;/b&gt;" style="whiteSpace=wrap;html=1;" vertex="1" parent="1">
          <mxGeometry x="95" y="430" width="125" height="60" as="geometry" />
        </mxCell>
        <mxCell id="GZaLK179q7ftWSOgqzJj-57" value="&lt;div&gt;&lt;font style=&quot;font-size: 18px;&quot;&gt;&lt;b&gt;Процесс технического обслуживания и сопровождения системы&lt;/b&gt;&lt;/font&gt;&lt;/div&gt;&lt;div&gt;&lt;br&gt;&lt;/div&gt;" style="text;html=1;align=center;verticalAlign=middle;resizable=0;points=[];autosize=1;strokeColor=none;fillColor=none;" vertex="1" parent="1">
          <mxGeometry x="135" y="-70" width="610" height="50" as="geometry" />
        </mxCell>
        <mxCell id="GZaLK179q7ftWSOgqzJj-58" value="&lt;div&gt;2&lt;span style=&quot;white-space-collapse: preserve;&quot;&gt;&#x9;&lt;/span&gt;Мониторинг производительности&lt;span style=&quot;white-space-collapse: preserve;&quot;&gt;&#x9;&lt;/span&gt;ГОСТ 34.601-90, раздел 4.6&lt;/div&gt;&lt;div&gt;4&lt;span style=&quot;white-space-collapse: preserve;&quot;&gt;&#x9;&lt;/span&gt;Классификация работ по сопровождению&lt;span style=&quot;white-space-collapse: preserve;&quot;&gt;&#x9;&lt;/span&gt;ГОСТ 34.601-90, раздел 4.6.3&lt;/div&gt;&lt;div&gt;6&lt;span style=&quot;white-space-collapse: preserve;&quot;&gt;&#x9;&lt;/span&gt;Ведение документации и учет изменений&lt;span style=&quot;white-space-collapse: preserve;&quot;&gt;&#x9;&lt;/span&gt;ГОСТ 34.201-89&lt;/div&gt;&lt;div&gt;8&lt;span style=&quot;white-space-collapse: preserve;&quot;&gt;&#x9;&lt;/span&gt;Валидация после внесения изменений&lt;span style=&quot;white-space-collapse: preserve;&quot;&gt;&#x9;&lt;/span&gt;ГОСТ 34.603-92&lt;/div&gt;&lt;div style=&quot;&quot;&gt;9&lt;span style=&quot;white-space-collapse: preserve;&quot;&gt;&#x9;&lt;/span&gt;Управление версиями и архивация&lt;span style=&quot;white-space-collapse: preserve;&quot;&gt;&#x9;&lt;/span&gt;ГОСТ 34.602-89&lt;/div&gt;" style="text;html=1;align=left;verticalAlign=middle;resizable=0;points=[];autosize=1;strokeColor=none;fillColor=none;" vertex="1" parent="1">
          <mxGeometry x="210" y="510" width="450" height="90" as="geometry" />
        </mxCell>
        <mxCell id="GZaLK179q7ftWSOgqzJj-59" value="&lt;b&gt;2&lt;/b&gt;" style="text;html=1;align=center;verticalAlign=middle;resizable=0;points=[];autosize=1;strokeColor=none;fillColor=none;" vertex="1" parent="1">
          <mxGeometry x="70" y="200" width="30" height="30" as="geometry" />
        </mxCell>
        <mxCell id="GZaLK179q7ftWSOgqzJj-60" value="&lt;b&gt;4&lt;/b&gt;" style="text;html=1;align=center;verticalAlign=middle;resizable=0;points=[];autosize=1;strokeColor=none;fillColor=none;" vertex="1" parent="1">
          <mxGeometry x="480" y="190" width="30" height="30" as="geometry" />
        </mxCell>
        <mxCell id="GZaLK179q7ftWSOgqzJj-61" value="&lt;b&gt;6&lt;/b&gt;" style="text;html=1;align=center;verticalAlign=middle;resizable=0;points=[];autosize=1;strokeColor=none;fillColor=none;" vertex="1" parent="1">
          <mxGeometry x="620" y="280" width="30" height="30" as="geometry" />
        </mxCell>
        <mxCell id="GZaLK179q7ftWSOgqzJj-62" value="&lt;b&gt;8&lt;/b&gt;" style="text;html=1;align=center;verticalAlign=middle;resizable=0;points=[];autosize=1;strokeColor=none;fillColor=none;" vertex="1" parent="1">
          <mxGeometry x="380" y="330" width="30" height="30" as="geometry" />
        </mxCell>
        <mxCell id="GZaLK179q7ftWSOgqzJj-63" value="&lt;b&gt;9&lt;/b&gt;" style="text;html=1;align=center;verticalAlign=middle;resizable=0;points=[];autosize=1;strokeColor=none;fillColor=none;" vertex="1" parent="1">
          <mxGeometry x="200" y="380" width="30" height="30" as="geometry" />
        </mxCell>
      </root>
    </mxGraphModel>
  </diagram>
</mxfile>
